<svg width="124" height="143" viewBox="0 0 124 143" fill="none" xmlns="http://www.w3.org/2000/svg">
<path d="M123.329 86.9224C122.593 91.5979 118.185 94.8772 113.446 94.8709C100.395 94.8503 89.5792 94.0993 80.3616 93.2012C80.5831 92.2082 80.7177 91.1836 80.7177 90.1258C80.7177 82.2786 74.3283 75.8954 66.4734 75.8954C58.6184 75.8954 52.2291 82.2786 52.2291 90.1258C52.2291 90.1812 52.2449 90.2318 52.2449 90.2855C50.5989 90.1891 49.0067 90.1258 47.481 90.1258C37.9848 90.1258 28.4886 94.8693 14.2443 94.8709C8.30917 94.8725 0 90.1258 0 80.6389C0 66.4085 9.4962 64.5965 9.4962 59.2933C9.4962 39.0071 2.01161 24.081 0.341862 0H42.7329V44.2613C42.7329 48.7075 45.8207 52.507 50.1573 53.5126C67.1555 57.4529 88.4903 65.2606 104.46 75.8986H113.956C119.704 75.897 124.261 81.0026 123.329 86.9224Z" fill="#C11F1D"/>
<path d="M73.1729 92.4498C68.0956 91.8821 63.558 91.3224 59.4288 90.8923C59.4003 90.6362 59.3512 90.388 59.3512 90.1255C59.3512 86.2026 62.5467 83.0103 66.4734 83.0103C70.4001 83.0103 73.5955 86.2026 73.5955 90.1255C73.5955 90.9429 73.4278 91.7177 73.1729 92.4498Z" fill="#C11F1D"/>
<path d="M47.7394 99.7881C48.4516 99.2189 49.3506 100.134 48.928 100.998L43.2192 112.648C42.8362 113.429 43.2033 114.407 43.9646 114.64L48.9533 116.155C49.6924 116.379 50.0659 117.314 49.7272 118.092L41.5684 136.786C41.3089 137.38 40.7138 137.685 40.1487 137.513L30.8947 134.703C30.0843 134.457 29.7251 133.385 30.1872 132.591L36.3882 121.951L27.0155 119.107C26.0216 118.805 25.7889 117.328 26.6309 116.656L47.7394 99.7881Z" fill="#C11F1D"/>
<path d="M83.2434 138.743C83.3162 139.388 82.9538 139.95 82.3777 140.083L72.9575 142.272C72.1329 142.464 71.2846 141.714 71.2877 140.796L71.3336 128.485L61.7915 130.703C60.7802 130.939 59.8385 129.775 60.231 128.773L70.0722 103.62C70.4046 102.772 71.6422 103.115 71.7071 104.073L72.5934 117.015C72.6536 117.882 73.4608 118.547 74.2363 118.367L79.3136 117.186C80.067 117.01 80.8583 117.633 80.9533 118.478L83.2434 138.743Z" fill="#C11F1D"/>
</svg>
