<svg width="21" height="21" viewBox="0 0 21 21" fill="none" xmlns="http://www.w3.org/2000/svg">
<path d="M10.2276 5.09324C7.40782 5.09324 5.11429 7.37824 5.11429 10.1855C5.11429 12.9937 7.40873 15.2778 10.2276 15.2778C13.0474 15.2778 15.3409 12.9928 15.3409 10.1855C15.3409 7.37733 13.0474 5.09324 10.2276 5.09324ZM10.2276 13.2411C8.53531 13.2411 7.15942 11.8708 7.15942 10.1855C7.15942 8.50019 8.53531 7.12996 10.2276 7.12996C11.9199 7.12996 13.2958 8.50019 13.2958 10.1855C13.2958 11.8708 11.9199 13.2411 10.2276 13.2411ZM17.387 0H3.06818C1.37685 0 0 1.37119 0 3.05556V17.3145C0 18.9998 1.3759 20.37 3.06818 20.37H17.386C19.0783 20.37 20.4542 18.9998 20.4542 17.3145L20.4552 3.05556C20.4552 1.37119 19.0783 0 17.387 0ZM18.4091 17.3155C18.4091 17.8779 17.9508 18.3343 17.3861 18.3343L3.06821 18.3334C2.50442 18.3334 2.04515 17.8769 2.04515 17.3145L2.04611 3.05558C2.04611 2.49411 2.50538 2.03673 3.06917 2.03673H17.387C17.9518 2.03673 18.4101 2.49411 18.4101 3.05558L18.4091 17.3155ZM16.0677 4.36944C16.2508 4.56328 16.364 4.82778 16.364 5.09322C16.364 5.35771 16.2508 5.62318 16.0677 5.81604C16.0159 5.8571 15.9641 5.89721 15.9133 5.93826C15.8529 5.97837 15.7906 6.00988 15.7302 6.02993C15.6679 6.06049 15.6075 6.08054 15.5461 6.09104C15.4742 6.10059 15.4119 6.11109 15.3409 6.11109C15.0753 6.11109 14.8088 5.99842 14.6151 5.81605C14.4301 5.62221 14.3189 5.35772 14.3189 5.09323C14.3189 4.82779 14.431 4.56327 14.6151 4.37041C14.6659 4.32935 14.7167 4.28829 14.7676 4.24723C14.8299 4.20712 14.8913 4.17561 14.9526 4.15556C15.014 4.12501 15.0753 4.10495 15.1367 4.09445C15.2796 4.06389 15.4119 4.06389 15.5461 4.09445C15.6075 4.104 15.6679 4.12501 15.7302 4.15556C15.7906 4.17561 15.8529 4.20712 15.9133 4.24723C15.9642 4.28829 16.0159 4.32934 16.0677 4.36944Z" fill="#C11F1D"/>
</svg>
