<svg width="19" height="19" viewBox="0 0 19 19" fill="none" xmlns="http://www.w3.org/2000/svg">
<path d="M0.136364 18.4517V5.36075H3.76705V18.4517H0.136364ZM1.96023 3.67325C1.42045 3.67325 0.957386 3.49427 0.571023 3.13632C0.190341 2.77268 0 2.33802 0 1.83234C0 1.33234 0.190341 0.903364 0.571023 0.54541C0.957386 0.181773 1.42045 -4.52995e-05 1.96023 -4.52995e-05C2.5 -4.52995e-05 2.96023 0.181773 3.34091 0.54541C3.72727 0.903364 3.92045 1.33234 3.92045 1.83234C3.92045 2.33802 3.72727 2.77268 3.34091 3.13632C2.96023 3.49427 2.5 3.67325 1.96023 3.67325ZM10.3061 10.8835V18.4517H6.67543V5.36075H10.1357V7.67041H10.2891C10.5788 6.90905 11.0646 6.30677 11.7464 5.86359C12.4283 5.41473 13.255 5.1903 14.2266 5.1903C15.1357 5.1903 15.9283 5.38916 16.6044 5.78689C17.2805 6.18461 17.8061 6.7528 18.1811 7.49143C18.5561 8.22439 18.7436 9.09939 18.7436 10.1164V18.4517H15.1129V10.7642C15.1186 9.96302 14.9141 9.33802 14.4993 8.88916C14.0845 8.43461 13.5135 8.20734 12.7862 8.20734C12.2976 8.20734 11.8658 8.31246 11.4908 8.52268C11.1214 8.73291 10.8317 9.03973 10.6214 9.44314C10.4169 9.84086 10.3118 10.321 10.3061 10.8835Z" fill="#C11F1D"/>
</svg>
