<svg width="133" height="133" viewBox="0 0 133 133" fill="none" xmlns="http://www.w3.org/2000/svg">
<path fill-rule="evenodd" clip-rule="evenodd" d="M31.1857 87.2088L44.1488 94.6947C51.689 93.3267 56.6831 96.2798 59.1199 103.543L86.5176 119.362C93.3086 121.007 100.078 113.515 96.4517 109.118L87.0061 103.663C83.1355 95.3463 69.7267 72.0849 71.8502 64.8335C80.9591 46.1102 91.1918 32.1536 103.004 17.9038C104.665 15.8952 103.243 12.8661 100.637 12.8661L66.2148 12.8607C64.9066 12.8607 63.7937 13.6316 63.3323 14.8584L47.2648 57.6677C38.7638 61.7553 22.5488 76.8348 31.1857 87.2088ZM121.467 82.904C122.433 82.904 123.215 83.6857 123.215 84.652C123.215 85.6182 122.433 86.3999 121.467 86.3999L94.7041 86.3945C93.7379 86.3945 92.9562 85.6128 92.9562 84.6465C92.9562 83.6803 93.7379 82.8986 94.7041 82.8986L121.467 82.904ZM10.9755 29.3899C10.0092 29.3899 9.22752 28.6082 9.22752 27.642C9.22752 26.6757 10.0092 25.894 10.9755 25.894H45.908C46.8743 25.894 47.656 26.6757 47.656 27.642C47.656 28.6083 46.8743 29.3899 45.908 29.3899H10.9755ZM10.9755 49.5404C10.0092 49.5404 9.22752 48.7587 9.22752 47.7925C9.22752 46.8262 10.0092 46.0445 10.9755 46.0445H33.922C34.8882 46.0445 35.6699 46.8262 35.6699 47.7925C35.6699 48.7587 34.8882 49.5404 33.922 49.5404H10.9755ZM10.9755 39.4652C10.0092 39.4652 9.22752 38.6835 9.22752 37.7172C9.22752 36.751 10.0092 35.9693 10.9755 35.9693H45.908C46.8743 35.9693 47.656 36.751 47.656 37.7172C47.656 38.6835 46.8743 39.4652 45.908 39.4652H10.9755ZM121.467 103.054C122.433 103.054 123.215 103.836 123.215 104.802C123.215 105.769 122.433 106.55 121.467 106.55H106.69C105.724 106.55 104.942 105.769 104.942 104.802C104.942 103.836 105.724 103.054 106.69 103.054H121.467ZM121.467 92.9793C122.433 92.9793 123.215 93.7609 123.215 94.7272C123.215 95.6935 122.433 96.4751 121.467 96.4751L94.7041 96.4697C93.7379 96.4697 92.9562 95.688 92.9562 94.7218C92.9562 93.7555 93.7379 92.9738 94.7041 92.9738L121.467 92.9793ZM85.3779 3.4959C84.4117 3.4959 83.63 2.7142 83.63 1.74795C83.63 0.781685 84.4117 0 85.3779 0H119.978C126.835 0 132.442 5.60211 132.442 12.4638V47.0643C132.442 48.0305 131.66 48.8122 130.694 48.8122C129.728 48.8122 128.946 48.0305 128.946 47.0643V12.4638C128.946 7.53474 124.908 3.49604 119.979 3.49604L85.3779 3.4959ZM128.947 85.3791C128.947 84.4128 129.729 83.6311 130.695 83.6311C131.662 83.6311 132.443 84.4128 132.443 85.3791V119.979C132.443 126.836 126.841 132.443 119.979 132.443L85.379 132.438C84.4128 132.438 83.6311 131.656 83.6311 130.69C83.6311 129.724 84.4128 128.942 85.379 128.942H119.979C124.909 128.942 128.947 124.903 128.947 119.974L128.947 85.3791ZM47.0643 128.949C48.0305 128.949 48.8122 129.73 48.8122 130.696C48.8122 131.663 48.0305 132.444 47.0643 132.444L12.4638 132.439C5.60767 132.439 0 126.837 0 119.975L0.00542813 85.3789C0.00542813 84.4126 0.787127 83.631 1.75338 83.631C2.71963 83.631 3.50132 84.4127 3.50132 85.3789V119.979C3.50132 124.908 7.54003 128.947 12.4691 128.947L47.0643 128.949ZM3.49479 47.0654C3.49479 48.0316 2.71309 48.8133 1.74684 48.8133C0.780573 48.8133 0.00430792 48.0316 0.00430792 47.0654V12.4649C0.00430792 5.60878 5.60641 0.0011116 12.4681 0.0011116H47.0686C48.0348 0.0011116 48.8165 0.782811 48.8165 1.74906C48.8165 2.71532 48.0348 3.49701 47.0686 3.49701H12.4626C7.53349 3.49701 3.49479 7.53572 3.49479 12.4648V47.0654ZM58.7946 61.5862C59.7446 61.4234 60.6511 62.0585 60.814 63.003C60.9768 63.953 60.3417 64.8541 59.3972 65.0224C56.8186 65.4729 55.1413 66.3469 54.2781 67.6497H54.2835C53.4421 68.9362 53.3553 70.7819 54.0175 73.1814C54.2727 74.1096 53.7298 75.0651 52.8016 75.3202C51.8733 75.5754 50.9179 75.0325 50.6627 74.1042C49.7182 70.6844 49.9516 67.894 51.363 65.7336H51.3684C52.7744 63.6002 55.2498 62.2105 58.7946 61.5862Z" fill="#C11F1D"/>
</svg>
