<svg width="157" height="140" viewBox="0 0 157 140" fill="none" xmlns="http://www.w3.org/2000/svg">
<path d="M95.017 45.882C93.9122 43.4032 92.7135 40.864 91.4881 38.2712C93.4501 35.3703 96.008 32.9115 98.9812 31.0221C100.562 35.6716 101.974 39.8121 102.885 42.559C102.075 42.1704 101.01 42.4518 100.521 43.2089C99.2892 42.5791 97.8628 43.3362 97.6218 44.6761C96.5571 44.2206 95.5058 44.9106 95.017 45.882ZM108.972 63.3676C108.771 64.5937 107.639 65.1498 106.474 65.0091C106.072 65.3909 105.53 65.6723 104.968 65.6589C104.907 65.6522 101.68 65.679 101.747 65.6388L106.186 77.1153C108.811 77.8121 111.69 78.1136 114.476 77.859L109.561 63.2135C109.367 63.2939 109.179 63.3475 108.972 63.3676ZM128.123 72.5998C134.13 67.9503 137.993 60.6811 137.993 52.5209C137.993 38.8671 127.186 27.7324 113.693 27.1218L124.172 63.0654L128.123 72.5998ZM108.684 23.5321L103.307 5.11516H94.0461C96.8852 13.3155 99.2491 20.1023 101.137 25.5765C103.501 24.5648 106.032 23.8938 108.684 23.5321ZM107.693 45.1579C108.095 47.7038 105.289 47.563 103.541 47.563C103.066 47.6233 102.59 47.3888 102.209 47.0673C101.787 47.3353 101.278 47.4291 100.782 47.3152C100.602 48.0253 100.273 48.7824 99.5235 49.0503C98.894 49.3384 98.211 49.191 97.6351 48.8761L96.336 50.8995C95.5927 52.1858 93.537 52.025 92.9813 50.6516C91.8027 47.945 90.5438 45.2181 89.2247 42.411C83.6334 54.4636 89.6867 70.0329 101.405 75.3395L96.9254 63.729C96.4231 62.5833 97.3137 61.1831 98.5458 61.1362C99.9119 61.1496 102.309 60.2988 103.16 61.8397H104.325C104.686 61.5382 105.128 61.2501 105.604 61.2099C105.731 60.0174 106.722 59.0057 107.967 59.2871L108.67 58.2353C109.454 56.9222 111.63 57.2102 112.066 58.6708L118.3 77.2626C120.643 76.7266 122.853 75.8691 124.916 74.7434L120.63 64.4059C120.57 64.2117 109.836 27.4298 109.769 27.2034C107.177 27.4915 104.7 28.1749 102.396 29.1864C105.878 39.3632 107.485 44.2066 107.693 45.1579ZM89.6266 34.4251C91.8565 31.6046 94.6018 29.1993 97.7088 27.3502C95.0036 19.4916 92.0104 10.8757 90.0082 5.11379H71.4259C73.9706 8.42344 76.9704 11.3712 79.2939 14.9556C83.3385 21.2197 86.3656 27.8653 89.6266 34.4251ZM126.349 78.3011C124.213 79.4468 121.929 80.3044 119.505 80.8939L128.023 106.272C129.108 108.329 131.244 113.461 129.55 119.524C127.501 128.649 117.878 133.486 109.917 130.699L86.3065 126.197C83.7017 125.634 81.0166 126.237 78.5524 127.129C74.4744 128.857 70.0884 126.874 65.9567 128.006L59.7627 129.668C57.3386 130.324 56.408 126.639 58.7717 125.99L64.9657 124.328C69.037 122.908 73.3359 124.991 77.3738 123.511C80.4474 122.385 83.7687 121.762 87.0364 122.459C87.0364 122.459 110.748 126.981 110.748 126.974C116.386 129.058 124.02 126.338 125.881 118.506C127.26 113.354 125.432 109.515 124.468 107.639L115.723 81.5901C113.125 81.8916 110.379 81.7777 107.815 81.3422L113.908 97.0999C114.196 97.8837 113.968 98.7614 113.299 99.2705L109.85 102.017C109.448 102.326 108.973 102.473 108.457 102.419L99.5582 101.468C97.094 101.12 89.2661 101.93 86.6948 102.024C82.8846 102.272 79.2418 103.572 76.1348 105.783L68.548 111.176C64.6306 114.251 58.2893 115.484 53.5685 116.817C51.1177 117.427 50.1668 113.816 52.5574 113.139C56.6957 111.933 62.8896 110.801 66.3382 108.067L73.9251 102.674C77.6012 100.061 81.9271 98.5203 86.447 98.2121C89.3799 98.1116 97.1342 97.2541 99.9599 97.6761L108.096 98.5538L109.85 97.1603L103.315 80.2436C86.38 75.0044 77.8224 53.613 87.1701 38.0621C83.6545 31.0273 80.3869 23.6913 76.0946 17.0313C73.3827 12.8708 69.5324 9.43388 66.8136 5.11265H39.9756L72.6403 78.1457C74.8701 83.1234 74.9303 88.6173 72.7742 93.2266C71.9907 94.9217 71.1336 96.1075 70.5443 96.8109C68.2944 99.6314 65.7632 101.139 53.4288 105.641C46.9 107.966 47.7504 108.093 40.1101 110.29C33.0589 112.294 26.5234 115.59 20.6502 120.052C18.1993 122.135 15.4607 123.971 12.3603 125.164C9.34705 126.383 6.18635 127.033 2.90532 127.107C1.76027 127.623 0.862989 128.554 0.387462 129.74C-1.0924 132.989 1.9008 137.022 5.40295 136.587C9.74886 136.205 14.1683 135.997 18.6078 135.997C26.65 135.85 37.5312 137.136 42.9293 138.268C48.1925 139.22 52.746 140.044 59.931 139.816C67.8192 139.548 71.3682 138.443 74.7766 137.377C78.3389 136.252 81.7139 135.22 89.0528 135.32C96.8673 135.454 102.298 136.788 107.087 137.974C113.22 139.461 117.667 140.546 124.296 138.376C126.927 137.498 133.938 135.133 137.862 128.42C143.333 119.04 138.76 108.019 137.789 105.902L126.349 78.3011ZM136.025 17.5758L139.875 2.34748C140.471 -0.0643148 136.801 -1.009 136.179 1.40952L132.329 16.6378C131.733 19.0496 135.389 20.001 136.025 17.5758ZM159.409 13.0736C158.672 12.3233 157.46 12.3099 156.717 13.0535L143.01 26.54C142.26 27.277 142.246 28.4829 142.989 29.2332C143.726 29.9836 144.938 29.9903 145.681 29.2533L159.388 15.7669C160.138 15.0299 160.152 13.824 159.409 13.0736ZM150.556 46.3503L168.081 43.8447C169.125 43.6973 169.848 42.7325 169.701 41.6874C169.554 40.6422 168.596 39.9188 167.545 40.0728L150.02 42.5784C148.976 42.7258 148.253 43.6905 148.4 44.7356C148.541 45.7808 149.532 46.5043 150.556 46.3503ZM168.454 65.786L150.93 59.428C148.593 58.5839 147.287 62.1547 149.631 63.0123L167.155 69.3702C167.37 69.4506 167.591 69.4841 167.805 69.4841C169.881 69.5243 170.45 66.4826 168.454 65.786Z" fill="#C11F1D"/>
</svg>
