<svg width="201" height="49" viewBox="0 0 201 49" fill="none" xmlns="http://www.w3.org/2000/svg">
<path d="M199.298 48.7064C199.569 48.761 199.833 48.5858 199.887 48.3151L200.777 43.9039C200.831 43.6332 200.656 43.3695 200.385 43.3149C200.115 43.2603 199.851 43.4355 199.796 43.7062L199.006 47.6273L195.085 46.8366C194.814 46.782 194.55 46.9572 194.496 47.2279C194.441 47.4986 194.616 47.7623 194.887 47.8168L199.298 48.7064ZM0.396973 48.2162L0.793834 48.5204C21.1909 21.9049 58.671 3.7078 97.116 1.27758C135.545 -1.15162 174.852 12.1752 198.981 48.4929L199.397 48.2162L199.813 47.9396C175.442 11.2564 135.749 -2.16653 97.0529 0.27957C58.3729 2.72465 20.6031 21.028 0.000110835 47.9121L0.396973 48.2162Z" fill="#C11F1D"/>
</svg>
