<svg width="186" height="65" viewBox="0 0 186 65" fill="none" xmlns="http://www.w3.org/2000/svg">
<path d="M63.32 58.18C62.2933 58.18 61.36 57.9467 60.52 57.48C59.6933 57.0133 59.04 56.3533 58.56 55.5C58.0933 54.6333 57.86 53.6333 57.86 52.5C57.86 51.38 58.1 50.3933 58.58 49.54C59.0733 48.6733 59.74 48.0133 60.58 47.56C61.42 47.0933 62.36 46.86 63.4 46.86C64.44 46.86 65.38 47.0933 66.22 47.56C67.06 48.0133 67.72 48.6667 68.2 49.52C68.6933 50.3733 68.94 51.3667 68.94 52.5C68.94 53.6333 68.6867 54.6333 68.18 55.5C67.6867 56.3533 67.0133 57.0133 66.16 57.48C65.3067 57.9467 64.36 58.18 63.32 58.18ZM63.32 56.58C63.9733 56.58 64.5867 56.4267 65.16 56.12C65.7333 55.8133 66.1933 55.3533 66.54 54.74C66.9 54.1267 67.08 53.38 67.08 52.5C67.08 51.62 66.9067 50.8733 66.56 50.26C66.2133 49.6467 65.76 49.1933 65.2 48.9C64.64 48.5933 64.0333 48.44 63.38 48.44C62.7133 48.44 62.1 48.5933 61.54 48.9C60.9933 49.1933 60.5533 49.6467 60.22 50.26C59.8867 50.8733 59.72 51.62 59.72 52.5C59.72 53.3933 59.88 54.1467 60.2 54.76C60.5333 55.3733 60.9733 55.8333 61.52 56.14C62.0667 56.4333 62.6667 56.58 63.32 56.58ZM73.153 43.2V58H71.333V43.2H73.153ZM86.2548 52.1C86.2548 52.4467 86.2348 52.8133 86.1948 53.2H77.4348C77.5015 54.28 77.8682 55.1267 78.5348 55.74C79.2148 56.34 80.0348 56.64 80.9948 56.64C81.7815 56.64 82.4348 56.46 82.9548 56.1C83.4882 55.7267 83.8615 55.2333 84.0748 54.62H86.0348C85.7415 55.6733 85.1548 56.5333 84.2748 57.2C83.3948 57.8533 82.3015 58.18 80.9948 58.18C79.9548 58.18 79.0215 57.9467 78.1948 57.48C77.3815 57.0133 76.7415 56.3533 76.2748 55.5C75.8082 54.6333 75.5748 53.6333 75.5748 52.5C75.5748 51.3667 75.8015 50.3733 76.2548 49.52C76.7082 48.6667 77.3415 48.0133 78.1548 47.56C78.9815 47.0933 79.9282 46.86 80.9948 46.86C82.0348 46.86 82.9548 47.0867 83.7548 47.54C84.5548 47.9933 85.1682 48.62 85.5948 49.42C86.0348 50.2067 86.2548 51.1 86.2548 52.1ZM84.3748 51.72C84.3748 51.0267 84.2215 50.4333 83.9148 49.94C83.6082 49.4333 83.1882 49.0533 82.6548 48.8C82.1348 48.5333 81.5548 48.4 80.9148 48.4C79.9948 48.4 79.2082 48.6933 78.5548 49.28C77.9148 49.8667 77.5482 50.68 77.4548 51.72H84.3748ZM96.2572 49.9V51.44H88.2772V49.9H96.2572ZM98.9928 52.48C98.9928 51.36 99.2195 50.38 99.6728 49.54C100.126 48.6867 100.746 48.0267 101.533 47.56C102.333 47.0933 103.219 46.86 104.193 46.86C105.153 46.86 105.986 47.0667 106.693 47.48C107.399 47.8933 107.926 48.4133 108.273 49.04V47.04H110.113V58H108.273V55.96C107.913 56.6 107.373 57.1333 106.653 57.56C105.946 57.9733 105.119 58.18 104.173 58.18C103.199 58.18 102.319 57.94 101.533 57.46C100.746 56.98 100.126 56.3067 99.6728 55.44C99.2195 54.5733 98.9928 53.5867 98.9928 52.48ZM108.273 52.5C108.273 51.6733 108.106 50.9533 107.773 50.34C107.439 49.7267 106.986 49.26 106.413 48.94C105.853 48.6067 105.233 48.44 104.553 48.44C103.873 48.44 103.253 48.6 102.693 48.92C102.133 49.24 101.686 49.7067 101.353 50.32C101.019 50.9333 100.853 51.6533 100.853 52.48C100.853 53.32 101.019 54.0533 101.353 54.68C101.686 55.2933 102.133 55.7667 102.693 56.1C103.253 56.42 103.873 56.58 104.553 56.58C105.233 56.58 105.853 56.42 106.413 56.1C106.986 55.7667 107.439 55.2933 107.773 54.68C108.106 54.0533 108.273 53.3267 108.273 52.5ZM115.008 48.82C115.328 48.1933 115.782 47.7067 116.368 47.36C116.968 47.0133 117.695 46.84 118.548 46.84V48.72H118.068C116.028 48.72 115.008 49.8267 115.008 52.04V58H113.188V47.04H115.008V48.82ZM121.589 45.26C121.243 45.26 120.949 45.14 120.709 44.9C120.469 44.66 120.349 44.3667 120.349 44.02C120.349 43.6733 120.469 43.38 120.709 43.14C120.949 42.9 121.243 42.78 121.589 42.78C121.923 42.78 122.203 42.9 122.429 43.14C122.669 43.38 122.789 43.6733 122.789 44.02C122.789 44.3667 122.669 44.66 122.429 44.9C122.203 45.14 121.923 45.26 121.589 45.26ZM122.469 47.04V58H120.649V47.04H122.469ZM135.291 47.04V58H133.471V56.38C133.125 56.94 132.638 57.38 132.011 57.7C131.398 58.0067 130.718 58.16 129.971 58.16C129.118 58.16 128.351 57.9867 127.671 57.64C126.991 57.28 126.451 56.7467 126.051 56.04C125.665 55.3333 125.471 54.4733 125.471 53.46V47.04H127.271V53.22C127.271 54.3 127.545 55.1333 128.091 55.72C128.638 56.2933 129.385 56.58 130.331 56.58C131.305 56.58 132.071 56.28 132.631 55.68C133.191 55.08 133.471 54.2067 133.471 53.06V47.04H135.291ZM151.544 46.84C152.398 46.84 153.158 47.02 153.824 47.38C154.491 47.7267 155.018 48.2533 155.404 48.96C155.791 49.6667 155.984 50.5267 155.984 51.54V58H154.184V51.8C154.184 50.7067 153.911 49.8733 153.364 49.3C152.831 48.7133 152.104 48.42 151.184 48.42C150.238 48.42 149.484 48.7267 148.924 49.34C148.364 49.94 148.084 50.8133 148.084 51.96V58H146.284V51.8C146.284 50.7067 146.011 49.8733 145.464 49.3C144.931 48.7133 144.204 48.42 143.284 48.42C142.338 48.42 141.584 48.7267 141.024 49.34C140.464 49.94 140.184 50.8133 140.184 51.96V58H138.364V47.04H140.184V48.62C140.544 48.0467 141.024 47.6067 141.624 47.3C142.238 46.9933 142.911 46.84 143.644 46.84C144.564 46.84 145.378 47.0467 146.084 47.46C146.791 47.8733 147.318 48.48 147.664 49.28C147.971 48.5067 148.478 47.9067 149.184 47.48C149.891 47.0533 150.678 46.84 151.544 46.84Z" fill="white"/>
<g clip-path="url(#clip0_1_252)">
<path d="M0.0773926 58.7548C11.2553 60.6649 22.6334 60.6877 33.5473 57.9206C35.4133 57.3918 37.2019 56.8083 38.854 55.9331C40.3332 55.0898 41.8442 53.8453 43.0184 52.651C48.5755 47.2354 48.2159 38.7065 48.448 31.4402C48.5937 18.6307 52.13 8.71592 64.6732 3.41891C75.7009 -1.16697 89.2591 -1.29916 99.8635 4.00696C94.1244 2.99497 88.4262 3.15452 82.9419 4.08901C73.175 5.95801 61.7513 9.83731 58.7111 20.1168C57.282 25.122 57.6052 30.5832 57.4094 36.0397C57.2274 42.5447 56.1533 49.5056 52.0481 54.8436C49.422 58.3263 45.9039 60.911 41.958 62.6524C38.2214 64.1658 34.2527 64.7037 30.3113 64.9453C19.9709 65.3966 9.26181 63.482 0.0819438 58.764H0.0773926V58.7548Z" fill="white"/>
<path d="M48.1704 31.6817C37.8572 32.0966 27.5214 33.3274 17.5587 36.0442C15.1966 36.7554 12.6479 37.5349 10.6772 38.9891C7.71433 41.3367 5.29307 44.4411 3.49077 47.787C2.26649 50.0435 1.29252 52.4458 0.632592 54.9302C0.323107 56.1793 0.0136222 57.4556 0.0727884 58.7503C-0.245799 56.1428 0.464196 53.5171 1.21515 51.0327C3.14943 45.2206 7.46856 38.2415 13.4352 36.0123C19.5521 33.6373 26.1196 32.6618 32.5823 31.9735C37.7617 31.4766 42.9865 31.2669 48.1704 31.6772V31.6817Z" fill="white"/>
<path d="M57.4458 30.9387C64.7961 30.6971 72.1145 30.1729 79.3373 28.8919C82.8873 28.2309 86.4691 27.456 89.7005 25.8696C94.8844 22.9157 97.8063 16.8848 99.0351 11.2048C99.5357 8.8253 99.8498 6.38193 99.736 3.92944C100.15 6.3637 100.018 8.87088 99.695 11.3279C98.9168 16.8893 96.4045 22.4143 91.967 26.0155C84.2526 31.349 66.7167 31.6863 57.4458 30.9478V30.9387Z" fill="white"/>
</g>
<defs>
<clipPath id="clip0_1_252">
<rect width="100" height="65" fill="white"/>
</clipPath>
</defs>
</svg>
